Coordinates
version=1
nRows=16
nColumns=22
inDegrees=yes

Units are S.I. units (second, meters, Newtons, ...)
If the header above contains a line with 'inDegrees', this indicates whether rotational values are in degrees (yes) or radians (no).

endheader
time	pelvis_tilt	pelvis_list	pelvis_rotation	pelvis_tx	pelvis_ty	pelvis_tz	hip_flexion_r	hip_adduction_r	hip_rotation_r	knee_angle_r	ankle_angle_r	subtalar_angle_r	hip_flexion_l	hip_adduction_l	hip_rotation_l	knee_angle_l	ankle_angle_l	subtalar_angle_l	lumbar_extension	lumbar_bending	lumbar_rotation
      1.60000000	     -6.66554079	     -2.70916118	    -11.95368405	     -1.06941622	      0.87459536	     -0.44066070	      8.39190861	      4.09732271	      4.58560193	    -18.20970386	     19.12257208	    -11.05490444	     22.39414951	    -13.68286229	     -2.47389595	    -48.35654682	     12.30731008	     12.35805801	     -4.07773374	      3.87950247	     12.62009030
      1.61000000	     -6.40052331	     -2.64077423	    -11.93772407	     -1.06729528	      0.87487980	     -0.43948926	      7.86967112	      4.00289397	      4.53877727	    -18.04547765	     19.24732380	    -11.07888165	     23.66096247	    -13.61460693	     -1.99305014	    -50.76004712	     11.29345751	     12.19193731	     -4.50137226	      3.76061543	     12.89378208
      1.62000000	     -6.20199024	     -2.54454456	    -11.98005115	     -1.06503252	      0.87509752	     -0.43829986	      7.41369724	      3.89359670	      4.54706709	    -17.88083207	     19.40189285	    -11.08934093	     24.92697857	    -13.53533183	     -1.62250926	    -52.91343891	     10.50039500	     11.91225378	     -4.83065345	      3.62038680	     13.22462361
      1.63000000	     -6.03557091	     -2.42006778	    -12.07171497	     -1.06255986	      0.87533812	     -0.43711511	      6.95418871	      3.75301945	      4.59047851	    -17.65143178	     19.50052771	    -11.07196988	     26.12470962	    -13.44008464	     -1.37255682	    -54.74454637	      9.92748299	     11.63481784	     -5.09710831	      3.45346807	     13.60545899
      1.64000000	     -5.91228932	     -2.27052523	    -12.22788261	     -1.05995525	      0.87556789	     -0.43588617	      6.53375015	      3.59712675	      4.70904872	    -17.41042200	     19.56476035	    -11.04145354	     27.26166428	    -13.35358858	     -1.25754771	    -56.23141592	      9.58281618	     11.31820600	     -5.30049617	      3.25903061	     14.05211362
      1.65000000	     -5.82151890	     -2.09481641	    -12.43149462	     -1.05714263	      0.87577999	     -0.43463673	      6.12741879	      3.41586954	      4.87123072	    -17.14460315	     19.65813871	    -11.00443483	     28.32127800	    -13.28237163	     -1.29201536	    -57.35534037	      9.46417818	     10.92301230	     -5.43870076	      3.04027501	     14.53139405
      1.66000000	     -5.74965251	     -1.90837228	    -12.68870780	     -1.05421204	      0.87602273	     -0.43332785	      5.72102493	      3.22925711	      5.10465942	    -16.84207248	     19.68864287	    -10.96372453	     29.28622368	    -13.24605627	     -1.44871290	    -58.09532214	      9.45130058	     10.60236349	     -5.54981215	      2.80240562	     15.06176442
      1.67000000	     -5.71148351	     -1.71440133	    -12.97120022	     -1.05111112	      0.87622220	     -0.43199811	      5.32877206	      3.03637199	      5.35090058	    -16.51203338	     19.73469559	    -10.91937427	     30.18439067	    -13.24941202	     -1.70933127	    -58.46850820	      9.53125553	     10.20838551	     -5.60622330	      2.56007894	     15.59021565
      1.68000000	     -5.68834735	     -1.52037403	    -13.25638448	     -1.04784669	      0.87639273	     -0.43069332	      4.93006183	      2.83751022	      5.59381846	    -16.15669562	     19.80527921	    -10.86286457	     31.00417415	    -13.27604641	     -2.02606993	    -58.48483289	      9.64604982	      9.61327523	     -5.63591112	      2.32066372	     16.09259469
      1.69000000	     -5.68763706	     -1.34812341	    -13.56953380	     -1.04445998	      0.87653289	     -0.42933274	      4.52883781	      2.66606003	      5.87455036	    -15.76900871	     19.78995592	    -10.80695135	     31.74335429	    -13.36175479	     -2.37619746	    -58.15238638	      9.72596143	      9.23935843	     -5.64152623	      2.09951450	     16.63476532
      1.70000000	     -5.67303057	     -1.18886536	    -13.83277785	     -1.04083132	      0.87663421	     -0.42809115	      4.07345674	      2.48479334	      6.09413214	    -15.34640175	     19.85023421	    -10.72806676	     32.38669614	    -13.43939049	     -2.70905456	    -57.50182842	      9.80729744	      8.53975459	     -5.65197702	      1.89795175	     17.08207268
      1.71000000	     -5.67002257	     -1.06603837	    -14.06731156	     -1.03702855	      0.87666676	     -0.42692244	      3.59916847	      2.33296772	      6.28227624	    -14.90202372	     19.86173325	    -10.64235108	     32.96194083	    -13.53477405	     -2.97871694	    -56.55821272	      9.83220695	      7.93328597	     -5.65347530	      1.73938292	     17.51244813
      1.72000000	     -5.66052869	     -0.97940117	    -14.26638600	     -1.03301168	      0.87662023	     -0.42584661	      3.08597580	      2.20309442	      6.42042049	    -14.44245344	     19.88880890	    -10.54828892	     33.45329893	    -13.64423271	     -3.19862239	    -55.35365108	      9.81597716	      7.33162223	     -5.66438932	      1.62260933	     17.88970198
      1.73000000	     -5.64428415	     -0.92679824	    -14.43397023	     -1.02880371	      0.87648917	     -0.42486513	      2.54288816	      2.09567219	      6.52241226	    -13.98174894	     19.90045281	    -10.45075403	     33.86182099	    -13.75431304	     -3.34510938	    -53.90844624	      9.75118379	      6.78115791	     -5.68727221	      1.54288694	     18.23855092
      1.74000000	     -5.62200848	     -0.89634635	    -14.54576491	     -1.02439263	      0.87624156	     -0.42405596	      1.97780774	      1.99481215	      6.56848375	    -13.53329169	     19.94464154	    -10.34638390	     34.20235760	    -13.82713119	     -3.38646216	    -52.25288839	      9.66907938	      6.23579541	     -5.71909683	      1.49385100	     18.51862138
      1.75000000	     -5.59786675	     -0.88910196	    -14.63665220	     -1.01979135	      0.87585694	     -0.42335529	      1.40201470	      1.90727260	      6.57982894	    -13.10595363	     20.04150632	    -10.23868036	     34.47748287	    -13.89787657	     -3.38072063	    -50.42213274	      9.57580699	      5.73908758	     -5.75672908	      1.47520924	     18.76168687
